G04 EAGLE Gerber RS-274X export*
G75*
%MOMM*%
%FSLAX34Y34*%
%LPD*%
%INEAGLE Copper Layer 2*%
%IPPOS*%
%AMOC8*
5,1,8,0,0,1.08239X$1,22.5*%
G01*
%ADD10C,2.250000*%
%ADD11C,2.400000*%
%ADD12C,1.524000*%
%ADD13C,0.756400*%

G36*
X339098Y-39836D02*
X339098Y-39836D01*
X339117Y-39838D01*
X339219Y-39816D01*
X339321Y-39800D01*
X339338Y-39790D01*
X339358Y-39786D01*
X339447Y-39733D01*
X339538Y-39684D01*
X339552Y-39670D01*
X339569Y-39660D01*
X339636Y-39581D01*
X339708Y-39506D01*
X339716Y-39488D01*
X339729Y-39473D01*
X339768Y-39377D01*
X339811Y-39283D01*
X339813Y-39263D01*
X339821Y-39245D01*
X339839Y-39078D01*
X339839Y319078D01*
X339836Y319098D01*
X339838Y319117D01*
X339816Y319219D01*
X339800Y319321D01*
X339790Y319338D01*
X339786Y319358D01*
X339733Y319447D01*
X339684Y319538D01*
X339670Y319552D01*
X339660Y319569D01*
X339581Y319636D01*
X339506Y319708D01*
X339488Y319716D01*
X339473Y319729D01*
X339377Y319768D01*
X339283Y319811D01*
X339263Y319813D01*
X339245Y319821D01*
X339078Y319839D01*
X201629Y319839D01*
X201562Y319828D01*
X201495Y319827D01*
X201442Y319809D01*
X201386Y319800D01*
X201327Y319768D01*
X201263Y319745D01*
X201219Y319711D01*
X201169Y319684D01*
X201122Y319635D01*
X201069Y319594D01*
X201038Y319547D01*
X201000Y319506D01*
X200971Y319445D01*
X200934Y319388D01*
X200920Y319334D01*
X200896Y319283D01*
X200889Y319216D01*
X200871Y319150D01*
X200875Y319094D01*
X200869Y319039D01*
X200883Y318972D01*
X200888Y318905D01*
X200909Y318853D01*
X200921Y318798D01*
X200956Y318740D01*
X200982Y318677D01*
X201019Y318635D01*
X201047Y318587D01*
X201099Y318543D01*
X201143Y318492D01*
X201209Y318449D01*
X201234Y318427D01*
X201254Y318419D01*
X201284Y318400D01*
X203351Y317346D01*
X205203Y316001D01*
X206821Y314383D01*
X208166Y312531D01*
X209205Y310492D01*
X209913Y308315D01*
X210211Y306433D01*
X196492Y306433D01*
X196472Y306430D01*
X196453Y306432D01*
X196351Y306410D01*
X196249Y306393D01*
X196232Y306384D01*
X196212Y306380D01*
X196123Y306327D01*
X196032Y306278D01*
X196018Y306264D01*
X196001Y306254D01*
X195934Y306175D01*
X195863Y306100D01*
X195854Y306082D01*
X195841Y306067D01*
X195803Y305971D01*
X195759Y305877D01*
X195757Y305857D01*
X195749Y305839D01*
X195731Y305672D01*
X195731Y304909D01*
X195729Y304909D01*
X195729Y305672D01*
X195726Y305692D01*
X195728Y305711D01*
X195706Y305813D01*
X195689Y305915D01*
X195680Y305932D01*
X195676Y305952D01*
X195623Y306041D01*
X195574Y306132D01*
X195560Y306146D01*
X195550Y306163D01*
X195471Y306230D01*
X195396Y306301D01*
X195378Y306310D01*
X195363Y306323D01*
X195267Y306362D01*
X195173Y306405D01*
X195153Y306407D01*
X195135Y306415D01*
X194968Y306433D01*
X181249Y306433D01*
X181547Y308315D01*
X182255Y310492D01*
X183294Y312531D01*
X184639Y314383D01*
X186257Y316001D01*
X188109Y317346D01*
X190176Y318400D01*
X190231Y318440D01*
X190291Y318472D01*
X190329Y318512D01*
X190375Y318545D01*
X190414Y318601D01*
X190460Y318650D01*
X190484Y318701D01*
X190516Y318747D01*
X190535Y318812D01*
X190564Y318873D01*
X190570Y318929D01*
X190586Y318982D01*
X190584Y319050D01*
X190591Y319117D01*
X190579Y319172D01*
X190577Y319228D01*
X190553Y319291D01*
X190539Y319358D01*
X190510Y319406D01*
X190490Y319458D01*
X190447Y319511D01*
X190413Y319569D01*
X190370Y319605D01*
X190335Y319649D01*
X190277Y319685D01*
X190226Y319729D01*
X190174Y319750D01*
X190126Y319780D01*
X190060Y319795D01*
X189998Y319821D01*
X189919Y319829D01*
X189887Y319837D01*
X189866Y319835D01*
X189831Y319839D01*
X150829Y319839D01*
X150762Y319828D01*
X150695Y319827D01*
X150642Y319809D01*
X150586Y319800D01*
X150527Y319768D01*
X150463Y319745D01*
X150419Y319711D01*
X150369Y319684D01*
X150322Y319635D01*
X150269Y319594D01*
X150238Y319547D01*
X150200Y319506D01*
X150171Y319445D01*
X150134Y319388D01*
X150120Y319334D01*
X150096Y319283D01*
X150089Y319216D01*
X150071Y319150D01*
X150075Y319094D01*
X150069Y319039D01*
X150083Y318972D01*
X150088Y318905D01*
X150109Y318853D01*
X150121Y318798D01*
X150156Y318740D01*
X150182Y318677D01*
X150219Y318635D01*
X150247Y318587D01*
X150299Y318543D01*
X150343Y318492D01*
X150409Y318449D01*
X150434Y318427D01*
X150454Y318419D01*
X150484Y318400D01*
X152551Y317346D01*
X154403Y316001D01*
X156021Y314383D01*
X157366Y312531D01*
X158405Y310492D01*
X159113Y308315D01*
X159411Y306433D01*
X145692Y306433D01*
X145672Y306430D01*
X145653Y306432D01*
X145551Y306410D01*
X145449Y306393D01*
X145432Y306384D01*
X145412Y306380D01*
X145323Y306327D01*
X145232Y306278D01*
X145218Y306264D01*
X145201Y306254D01*
X145134Y306175D01*
X145063Y306100D01*
X145054Y306082D01*
X145041Y306067D01*
X145003Y305971D01*
X144959Y305877D01*
X144957Y305857D01*
X144949Y305839D01*
X144931Y305672D01*
X144931Y304909D01*
X144929Y304909D01*
X144929Y305672D01*
X144926Y305692D01*
X144928Y305711D01*
X144906Y305813D01*
X144889Y305915D01*
X144880Y305932D01*
X144876Y305952D01*
X144823Y306041D01*
X144774Y306132D01*
X144760Y306146D01*
X144750Y306163D01*
X144671Y306230D01*
X144596Y306301D01*
X144578Y306310D01*
X144563Y306323D01*
X144467Y306362D01*
X144373Y306405D01*
X144353Y306407D01*
X144335Y306415D01*
X144168Y306433D01*
X130449Y306433D01*
X130747Y308315D01*
X131455Y310492D01*
X132494Y312531D01*
X133839Y314383D01*
X135457Y316001D01*
X137309Y317346D01*
X139376Y318400D01*
X139431Y318440D01*
X139491Y318472D01*
X139529Y318512D01*
X139575Y318545D01*
X139614Y318601D01*
X139660Y318650D01*
X139684Y318701D01*
X139716Y318747D01*
X139735Y318812D01*
X139764Y318873D01*
X139770Y318929D01*
X139786Y318982D01*
X139784Y319050D01*
X139791Y319117D01*
X139779Y319172D01*
X139777Y319228D01*
X139753Y319291D01*
X139739Y319358D01*
X139710Y319406D01*
X139690Y319458D01*
X139647Y319511D01*
X139613Y319569D01*
X139570Y319605D01*
X139535Y319649D01*
X139477Y319685D01*
X139426Y319729D01*
X139374Y319750D01*
X139326Y319780D01*
X139260Y319795D01*
X139198Y319821D01*
X139119Y319829D01*
X139087Y319837D01*
X139066Y319835D01*
X139031Y319839D01*
X1922Y319839D01*
X1902Y319836D01*
X1883Y319838D01*
X1781Y319816D01*
X1679Y319800D01*
X1662Y319790D01*
X1642Y319786D01*
X1553Y319733D01*
X1462Y319684D01*
X1448Y319670D01*
X1431Y319660D01*
X1364Y319581D01*
X1292Y319506D01*
X1284Y319488D01*
X1271Y319473D01*
X1232Y319377D01*
X1189Y319283D01*
X1187Y319263D01*
X1179Y319245D01*
X1161Y319078D01*
X1161Y-39078D01*
X1164Y-39098D01*
X1162Y-39117D01*
X1184Y-39219D01*
X1200Y-39321D01*
X1210Y-39338D01*
X1214Y-39358D01*
X1267Y-39447D01*
X1316Y-39538D01*
X1330Y-39552D01*
X1340Y-39569D01*
X1419Y-39636D01*
X1494Y-39708D01*
X1512Y-39716D01*
X1527Y-39729D01*
X1623Y-39768D01*
X1717Y-39811D01*
X1737Y-39813D01*
X1755Y-39821D01*
X1922Y-39839D01*
X339078Y-39839D01*
X339098Y-39836D01*
G37*
%LPC*%
G36*
X167789Y266735D02*
X167789Y266735D01*
X163094Y268680D01*
X159500Y272274D01*
X157555Y276969D01*
X157555Y282051D01*
X159500Y286746D01*
X163094Y290340D01*
X167789Y292285D01*
X172871Y292285D01*
X177566Y290340D01*
X181160Y286746D01*
X183105Y282051D01*
X183105Y276969D01*
X181160Y272274D01*
X177566Y268680D01*
X172871Y266735D01*
X167789Y266735D01*
G37*
%LPD*%
%LPC*%
G36*
X180781Y-26445D02*
X180781Y-26445D01*
X177420Y-25053D01*
X174847Y-22480D01*
X173455Y-19119D01*
X173455Y-15481D01*
X174847Y-12120D01*
X177420Y-9547D01*
X180781Y-8155D01*
X184419Y-8155D01*
X187780Y-9547D01*
X190353Y-12120D01*
X191745Y-15481D01*
X191745Y-19119D01*
X190353Y-22480D01*
X187780Y-25053D01*
X184419Y-26445D01*
X180781Y-26445D01*
G37*
%LPD*%
%LPC*%
G36*
X206181Y-26445D02*
X206181Y-26445D01*
X202820Y-25053D01*
X200247Y-22480D01*
X198855Y-19119D01*
X198855Y-15481D01*
X200247Y-12120D01*
X202820Y-9547D01*
X206181Y-8155D01*
X209819Y-8155D01*
X213180Y-9547D01*
X215753Y-12120D01*
X217145Y-15481D01*
X217145Y-19119D01*
X215753Y-22480D01*
X213180Y-25053D01*
X209819Y-26445D01*
X206181Y-26445D01*
G37*
%LPD*%
%LPC*%
G36*
X231581Y-26445D02*
X231581Y-26445D01*
X228220Y-25053D01*
X225647Y-22480D01*
X224255Y-19119D01*
X224255Y-15481D01*
X225647Y-12120D01*
X228220Y-9547D01*
X231581Y-8155D01*
X235219Y-8155D01*
X238580Y-9547D01*
X241153Y-12120D01*
X242545Y-15481D01*
X242545Y-19119D01*
X241153Y-22480D01*
X238580Y-25053D01*
X235219Y-26445D01*
X231581Y-26445D01*
G37*
%LPD*%
%LPC*%
G36*
X104581Y-26445D02*
X104581Y-26445D01*
X101220Y-25053D01*
X98647Y-22480D01*
X97255Y-19119D01*
X97255Y-15481D01*
X98647Y-12120D01*
X101220Y-9547D01*
X104581Y-8155D01*
X108219Y-8155D01*
X111580Y-9547D01*
X114153Y-12120D01*
X115545Y-15481D01*
X115545Y-19119D01*
X114153Y-22480D01*
X111580Y-25053D01*
X108219Y-26445D01*
X104581Y-26445D01*
G37*
%LPD*%
%LPC*%
G36*
X256981Y-26445D02*
X256981Y-26445D01*
X253620Y-25053D01*
X251047Y-22480D01*
X249655Y-19119D01*
X249655Y-15481D01*
X251047Y-12120D01*
X253620Y-9547D01*
X256981Y-8155D01*
X260619Y-8155D01*
X263980Y-9547D01*
X266553Y-12120D01*
X267945Y-15481D01*
X267945Y-19119D01*
X266553Y-22480D01*
X263980Y-25053D01*
X260619Y-26445D01*
X256981Y-26445D01*
G37*
%LPD*%
%LPC*%
G36*
X307781Y-26445D02*
X307781Y-26445D01*
X304420Y-25053D01*
X301847Y-22480D01*
X300455Y-19119D01*
X300455Y-15481D01*
X301847Y-12120D01*
X304420Y-9547D01*
X307781Y-8155D01*
X311419Y-8155D01*
X314780Y-9547D01*
X317353Y-12120D01*
X318745Y-15481D01*
X318745Y-19119D01*
X317353Y-22480D01*
X314780Y-25053D01*
X311419Y-26445D01*
X307781Y-26445D01*
G37*
%LPD*%
%LPC*%
G36*
X28381Y-26445D02*
X28381Y-26445D01*
X25020Y-25053D01*
X22447Y-22480D01*
X21055Y-19119D01*
X21055Y-15481D01*
X22447Y-12120D01*
X25020Y-9547D01*
X28381Y-8155D01*
X32019Y-8155D01*
X35380Y-9547D01*
X37953Y-12120D01*
X39345Y-15481D01*
X39345Y-19119D01*
X37953Y-22480D01*
X35380Y-25053D01*
X32019Y-26445D01*
X28381Y-26445D01*
G37*
%LPD*%
%LPC*%
G36*
X53781Y-26445D02*
X53781Y-26445D01*
X50420Y-25053D01*
X47847Y-22480D01*
X46455Y-19119D01*
X46455Y-15481D01*
X47847Y-12120D01*
X50420Y-9547D01*
X53781Y-8155D01*
X57419Y-8155D01*
X60780Y-9547D01*
X63353Y-12120D01*
X64745Y-15481D01*
X64745Y-19119D01*
X63353Y-22480D01*
X60780Y-25053D01*
X57419Y-26445D01*
X53781Y-26445D01*
G37*
%LPD*%
%LPC*%
G36*
X79181Y-26445D02*
X79181Y-26445D01*
X75820Y-25053D01*
X73247Y-22480D01*
X71855Y-19119D01*
X71855Y-15481D01*
X73247Y-12120D01*
X75820Y-9547D01*
X79181Y-8155D01*
X82819Y-8155D01*
X86180Y-9547D01*
X88753Y-12120D01*
X90145Y-15481D01*
X90145Y-19119D01*
X88753Y-22480D01*
X86180Y-25053D01*
X82819Y-26445D01*
X79181Y-26445D01*
G37*
%LPD*%
%LPC*%
G36*
X129981Y-26445D02*
X129981Y-26445D01*
X126620Y-25053D01*
X124047Y-22480D01*
X122655Y-19119D01*
X122655Y-15481D01*
X124047Y-12120D01*
X126620Y-9547D01*
X129981Y-8155D01*
X133619Y-8155D01*
X136980Y-9547D01*
X139553Y-12120D01*
X140945Y-15481D01*
X140945Y-19119D01*
X139553Y-22480D01*
X136980Y-25053D01*
X133619Y-26445D01*
X129981Y-26445D01*
G37*
%LPD*%
%LPC*%
G36*
X155381Y-26445D02*
X155381Y-26445D01*
X152020Y-25053D01*
X149447Y-22480D01*
X148055Y-19119D01*
X148055Y-15481D01*
X149447Y-12120D01*
X152020Y-9547D01*
X155381Y-8155D01*
X159019Y-8155D01*
X162380Y-9547D01*
X164953Y-12120D01*
X166345Y-15481D01*
X166345Y-19119D01*
X164953Y-22480D01*
X162380Y-25053D01*
X159019Y-26445D01*
X155381Y-26445D01*
G37*
%LPD*%
%LPC*%
G36*
X144106Y80037D02*
X144106Y80037D01*
X140997Y83146D01*
X140997Y87542D01*
X144106Y90651D01*
X148502Y90651D01*
X150338Y88815D01*
X150354Y88804D01*
X150366Y88788D01*
X150454Y88732D01*
X150537Y88672D01*
X150556Y88666D01*
X150573Y88655D01*
X150674Y88630D01*
X150773Y88599D01*
X150792Y88600D01*
X150812Y88595D01*
X150915Y88603D01*
X151018Y88606D01*
X151037Y88612D01*
X151057Y88614D01*
X151152Y88654D01*
X151249Y88690D01*
X151265Y88703D01*
X151283Y88710D01*
X151414Y88815D01*
X154012Y91413D01*
X158408Y91413D01*
X161517Y88304D01*
X161517Y83908D01*
X158408Y80799D01*
X154012Y80799D01*
X152176Y82635D01*
X152160Y82646D01*
X152148Y82662D01*
X152060Y82718D01*
X151977Y82778D01*
X151958Y82784D01*
X151941Y82795D01*
X151840Y82820D01*
X151741Y82851D01*
X151722Y82850D01*
X151702Y82855D01*
X151599Y82847D01*
X151496Y82844D01*
X151477Y82838D01*
X151457Y82836D01*
X151362Y82796D01*
X151265Y82760D01*
X151249Y82747D01*
X151231Y82740D01*
X151100Y82635D01*
X148502Y80037D01*
X144106Y80037D01*
G37*
%LPD*%
%LPC*%
G36*
X196684Y104421D02*
X196684Y104421D01*
X194086Y107019D01*
X194070Y107030D01*
X194058Y107046D01*
X193970Y107102D01*
X193887Y107162D01*
X193868Y107168D01*
X193851Y107179D01*
X193750Y107204D01*
X193651Y107235D01*
X193632Y107234D01*
X193612Y107239D01*
X193509Y107231D01*
X193406Y107228D01*
X193387Y107222D01*
X193367Y107220D01*
X193272Y107180D01*
X193175Y107144D01*
X193159Y107131D01*
X193141Y107124D01*
X193010Y107019D01*
X191174Y105183D01*
X186778Y105183D01*
X183669Y108292D01*
X183669Y112688D01*
X186778Y115797D01*
X191174Y115797D01*
X193772Y113199D01*
X193788Y113188D01*
X193800Y113172D01*
X193888Y113116D01*
X193971Y113056D01*
X193990Y113050D01*
X194007Y113039D01*
X194108Y113014D01*
X194207Y112983D01*
X194226Y112984D01*
X194246Y112979D01*
X194349Y112987D01*
X194452Y112990D01*
X194471Y112996D01*
X194491Y112998D01*
X194586Y113038D01*
X194683Y113074D01*
X194699Y113087D01*
X194717Y113094D01*
X194848Y113199D01*
X196684Y115035D01*
X201080Y115035D01*
X204189Y111926D01*
X204189Y107530D01*
X201080Y104421D01*
X196684Y104421D01*
G37*
%LPD*%
%LPC*%
G36*
X106006Y133377D02*
X106006Y133377D01*
X102897Y136486D01*
X102897Y138712D01*
X102894Y138732D01*
X102896Y138751D01*
X102874Y138853D01*
X102858Y138955D01*
X102848Y138972D01*
X102844Y138992D01*
X102791Y139081D01*
X102742Y139172D01*
X102728Y139186D01*
X102718Y139203D01*
X102639Y139270D01*
X102564Y139342D01*
X102546Y139350D01*
X102531Y139363D01*
X102435Y139402D01*
X102341Y139445D01*
X102321Y139447D01*
X102303Y139455D01*
X102136Y139473D01*
X99148Y139473D01*
X96039Y142582D01*
X96039Y146978D01*
X99148Y150087D01*
X103544Y150087D01*
X106653Y146978D01*
X106653Y144752D01*
X106656Y144732D01*
X106654Y144713D01*
X106676Y144611D01*
X106692Y144509D01*
X106702Y144492D01*
X106706Y144472D01*
X106759Y144383D01*
X106808Y144292D01*
X106822Y144278D01*
X106832Y144261D01*
X106911Y144194D01*
X106986Y144122D01*
X107004Y144114D01*
X107019Y144101D01*
X107115Y144062D01*
X107209Y144019D01*
X107229Y144017D01*
X107247Y144009D01*
X107414Y143991D01*
X110402Y143991D01*
X113511Y140882D01*
X113511Y136486D01*
X110402Y133377D01*
X106006Y133377D01*
G37*
%LPD*%
%LPC*%
G36*
X116674Y159285D02*
X116674Y159285D01*
X113565Y162394D01*
X113565Y166790D01*
X116674Y169899D01*
X121070Y169899D01*
X122906Y168063D01*
X122922Y168052D01*
X122934Y168036D01*
X123022Y167980D01*
X123105Y167920D01*
X123124Y167914D01*
X123141Y167903D01*
X123242Y167878D01*
X123341Y167847D01*
X123360Y167848D01*
X123380Y167843D01*
X123483Y167851D01*
X123586Y167854D01*
X123605Y167860D01*
X123625Y167862D01*
X123720Y167902D01*
X123817Y167938D01*
X123833Y167951D01*
X123851Y167958D01*
X123982Y168063D01*
X125818Y169899D01*
X130214Y169899D01*
X133323Y166790D01*
X133323Y162394D01*
X130214Y159285D01*
X125818Y159285D01*
X123982Y161121D01*
X123966Y161132D01*
X123954Y161148D01*
X123866Y161204D01*
X123783Y161264D01*
X123764Y161270D01*
X123747Y161281D01*
X123646Y161306D01*
X123547Y161337D01*
X123528Y161336D01*
X123508Y161341D01*
X123405Y161333D01*
X123302Y161330D01*
X123283Y161324D01*
X123263Y161322D01*
X123168Y161282D01*
X123071Y161246D01*
X123055Y161233D01*
X123037Y161226D01*
X122906Y161121D01*
X121070Y159285D01*
X116674Y159285D01*
G37*
%LPD*%
%LPC*%
G36*
X136486Y99849D02*
X136486Y99849D01*
X133377Y102958D01*
X133377Y107354D01*
X136486Y110463D01*
X140882Y110463D01*
X142718Y108627D01*
X142734Y108616D01*
X142746Y108600D01*
X142834Y108544D01*
X142917Y108484D01*
X142936Y108478D01*
X142953Y108467D01*
X143054Y108442D01*
X143153Y108411D01*
X143172Y108412D01*
X143192Y108407D01*
X143295Y108415D01*
X143398Y108418D01*
X143417Y108424D01*
X143437Y108426D01*
X143532Y108466D01*
X143629Y108502D01*
X143645Y108515D01*
X143663Y108522D01*
X143794Y108627D01*
X145630Y110463D01*
X150026Y110463D01*
X153135Y107354D01*
X153135Y102958D01*
X150026Y99849D01*
X145630Y99849D01*
X143794Y101685D01*
X143778Y101696D01*
X143766Y101712D01*
X143678Y101768D01*
X143595Y101828D01*
X143576Y101834D01*
X143559Y101845D01*
X143458Y101870D01*
X143359Y101901D01*
X143340Y101900D01*
X143320Y101905D01*
X143217Y101897D01*
X143114Y101894D01*
X143095Y101888D01*
X143075Y101886D01*
X142980Y101846D01*
X142883Y101810D01*
X142867Y101797D01*
X142849Y101790D01*
X142718Y101685D01*
X140882Y99849D01*
X136486Y99849D01*
G37*
%LPD*%
%LPC*%
G36*
X146453Y255633D02*
X146453Y255633D01*
X146453Y268591D01*
X148335Y268293D01*
X150512Y267585D01*
X152551Y266546D01*
X154403Y265201D01*
X156021Y263583D01*
X157366Y261731D01*
X158405Y259692D01*
X159113Y257515D01*
X159411Y255633D01*
X146453Y255633D01*
G37*
%LPD*%
%LPC*%
G36*
X197253Y255633D02*
X197253Y255633D01*
X197253Y268591D01*
X199135Y268293D01*
X201312Y267585D01*
X203351Y266546D01*
X205203Y265201D01*
X206821Y263583D01*
X208166Y261731D01*
X209205Y259692D01*
X209913Y257515D01*
X210211Y255633D01*
X197253Y255633D01*
G37*
%LPD*%
%LPC*%
G36*
X197253Y303387D02*
X197253Y303387D01*
X210211Y303387D01*
X209913Y301505D01*
X209205Y299328D01*
X208166Y297289D01*
X206821Y295437D01*
X205203Y293819D01*
X203351Y292474D01*
X201312Y291435D01*
X199135Y290727D01*
X197253Y290429D01*
X197253Y303387D01*
G37*
%LPD*%
%LPC*%
G36*
X146453Y303387D02*
X146453Y303387D01*
X159411Y303387D01*
X159113Y301505D01*
X158405Y299328D01*
X157366Y297289D01*
X156021Y295437D01*
X154403Y293819D01*
X152551Y292474D01*
X150512Y291435D01*
X148335Y290727D01*
X146453Y290429D01*
X146453Y303387D01*
G37*
%LPD*%
%LPC*%
G36*
X181249Y255633D02*
X181249Y255633D01*
X181547Y257515D01*
X182255Y259692D01*
X183294Y261731D01*
X184639Y263583D01*
X186257Y265201D01*
X188109Y266546D01*
X190148Y267585D01*
X192325Y268293D01*
X194207Y268591D01*
X194207Y255633D01*
X181249Y255633D01*
G37*
%LPD*%
%LPC*%
G36*
X146453Y252587D02*
X146453Y252587D01*
X159411Y252587D01*
X159113Y250705D01*
X158405Y248528D01*
X157366Y246489D01*
X156021Y244637D01*
X154403Y243019D01*
X152551Y241674D01*
X150512Y240635D01*
X148335Y239927D01*
X146453Y239629D01*
X146453Y252587D01*
G37*
%LPD*%
%LPC*%
G36*
X130449Y255633D02*
X130449Y255633D01*
X130747Y257515D01*
X131455Y259692D01*
X132494Y261731D01*
X133839Y263583D01*
X135457Y265201D01*
X137309Y266546D01*
X139348Y267585D01*
X141525Y268293D01*
X143407Y268591D01*
X143407Y255633D01*
X130449Y255633D01*
G37*
%LPD*%
%LPC*%
G36*
X197253Y252587D02*
X197253Y252587D01*
X210211Y252587D01*
X209913Y250705D01*
X209205Y248528D01*
X208166Y246489D01*
X206821Y244637D01*
X205203Y243019D01*
X203351Y241674D01*
X201312Y240635D01*
X199135Y239927D01*
X197253Y239629D01*
X197253Y252587D01*
G37*
%LPD*%
%LPC*%
G36*
X192325Y290727D02*
X192325Y290727D01*
X190148Y291435D01*
X188109Y292474D01*
X186257Y293819D01*
X184639Y295437D01*
X183294Y297289D01*
X182255Y299328D01*
X181547Y301505D01*
X181249Y303387D01*
X194207Y303387D01*
X194207Y290429D01*
X192325Y290727D01*
G37*
%LPD*%
%LPC*%
G36*
X141525Y290727D02*
X141525Y290727D01*
X139348Y291435D01*
X137309Y292474D01*
X135457Y293819D01*
X133839Y295437D01*
X132494Y297289D01*
X131455Y299328D01*
X130747Y301505D01*
X130449Y303387D01*
X143407Y303387D01*
X143407Y290429D01*
X141525Y290727D01*
G37*
%LPD*%
%LPC*%
G36*
X141525Y239927D02*
X141525Y239927D01*
X139348Y240635D01*
X137309Y241674D01*
X135457Y243019D01*
X133839Y244637D01*
X132494Y246489D01*
X131455Y248528D01*
X130747Y250705D01*
X130449Y252587D01*
X143407Y252587D01*
X143407Y239629D01*
X141525Y239927D01*
G37*
%LPD*%
%LPC*%
G36*
X192325Y239927D02*
X192325Y239927D01*
X190148Y240635D01*
X188109Y241674D01*
X186257Y243019D01*
X184639Y244637D01*
X183294Y246489D01*
X182255Y248528D01*
X181547Y250705D01*
X181249Y252587D01*
X194207Y252587D01*
X194207Y239629D01*
X192325Y239927D01*
G37*
%LPD*%
%LPC*%
G36*
X166204Y94515D02*
X166204Y94515D01*
X163095Y97624D01*
X163095Y102020D01*
X166204Y105129D01*
X170600Y105129D01*
X173709Y102020D01*
X173709Y97624D01*
X170600Y94515D01*
X166204Y94515D01*
G37*
%LPD*%
%LPC*%
G36*
X113626Y86133D02*
X113626Y86133D01*
X110517Y89242D01*
X110517Y93638D01*
X113626Y96747D01*
X118022Y96747D01*
X121131Y93638D01*
X121131Y89242D01*
X118022Y86133D01*
X113626Y86133D01*
G37*
%LPD*%
%LPC*%
G36*
X109054Y100611D02*
X109054Y100611D01*
X105945Y103720D01*
X105945Y108116D01*
X109054Y111225D01*
X113450Y111225D01*
X116559Y108116D01*
X116559Y103720D01*
X113450Y100611D01*
X109054Y100611D01*
G37*
%LPD*%
%LPC*%
G36*
X221830Y79275D02*
X221830Y79275D01*
X218721Y82384D01*
X218721Y86780D01*
X221830Y89889D01*
X226226Y89889D01*
X229335Y86780D01*
X229335Y82384D01*
X226226Y79275D01*
X221830Y79275D01*
G37*
%LPD*%
%LPC*%
G36*
X173824Y74703D02*
X173824Y74703D01*
X170715Y77812D01*
X170715Y82208D01*
X173824Y85317D01*
X178220Y85317D01*
X181329Y82208D01*
X181329Y77812D01*
X178220Y74703D01*
X173824Y74703D01*
G37*
%LPD*%
%LPC*%
G36*
X299554Y73941D02*
X299554Y73941D01*
X296445Y77050D01*
X296445Y81446D01*
X299554Y84555D01*
X303950Y84555D01*
X307059Y81446D01*
X307059Y77050D01*
X303950Y73941D01*
X299554Y73941D01*
G37*
%LPD*%
%LPC*%
G36*
X298792Y61749D02*
X298792Y61749D01*
X295683Y64858D01*
X295683Y69254D01*
X298792Y72363D01*
X303188Y72363D01*
X306297Y69254D01*
X306297Y64858D01*
X303188Y61749D01*
X298792Y61749D01*
G37*
%LPD*%
%LPC*%
G36*
X200494Y39651D02*
X200494Y39651D01*
X197385Y42760D01*
X197385Y47156D01*
X200494Y50265D01*
X204890Y50265D01*
X207999Y47156D01*
X207999Y42760D01*
X204890Y39651D01*
X200494Y39651D01*
G37*
%LPD*%
%LPC*%
G36*
X298792Y127281D02*
X298792Y127281D01*
X295683Y130390D01*
X295683Y134786D01*
X298792Y137895D01*
X303188Y137895D01*
X306297Y134786D01*
X306297Y130390D01*
X303188Y127281D01*
X298792Y127281D01*
G37*
%LPD*%
%LPC*%
G36*
X115150Y143283D02*
X115150Y143283D01*
X112041Y146392D01*
X112041Y150788D01*
X115150Y153897D01*
X119546Y153897D01*
X122655Y150788D01*
X122655Y146392D01*
X119546Y143283D01*
X115150Y143283D01*
G37*
%LPD*%
%LPC*%
G36*
X146392Y169191D02*
X146392Y169191D01*
X143283Y172300D01*
X143283Y176696D01*
X146392Y179805D01*
X150788Y179805D01*
X153897Y176696D01*
X153897Y172300D01*
X150788Y169191D01*
X146392Y169191D01*
G37*
%LPD*%
%LPC*%
G36*
X166204Y169191D02*
X166204Y169191D01*
X163095Y172300D01*
X163095Y176696D01*
X166204Y179805D01*
X170600Y179805D01*
X173709Y176696D01*
X173709Y172300D01*
X170600Y169191D01*
X166204Y169191D01*
G37*
%LPD*%
%LPC*%
G36*
X70954Y172239D02*
X70954Y172239D01*
X67845Y175348D01*
X67845Y179744D01*
X70954Y182853D01*
X75350Y182853D01*
X78459Y179744D01*
X78459Y175348D01*
X75350Y172239D01*
X70954Y172239D01*
G37*
%LPD*%
%LPC*%
G36*
X285723Y-18823D02*
X285723Y-18823D01*
X294246Y-18823D01*
X294111Y-19679D01*
X293616Y-21200D01*
X292890Y-22625D01*
X291950Y-23919D01*
X290819Y-25050D01*
X289525Y-25990D01*
X288100Y-26716D01*
X286579Y-27211D01*
X285723Y-27346D01*
X285723Y-18823D01*
G37*
%LPD*%
%LPC*%
G36*
X285723Y-15777D02*
X285723Y-15777D01*
X285723Y-7254D01*
X286579Y-7389D01*
X288100Y-7884D01*
X289525Y-8610D01*
X290819Y-9550D01*
X291950Y-10681D01*
X292890Y-11975D01*
X293616Y-13400D01*
X294111Y-14921D01*
X294246Y-15777D01*
X285723Y-15777D01*
G37*
%LPD*%
%LPC*%
G36*
X281821Y-27211D02*
X281821Y-27211D01*
X280300Y-26716D01*
X278875Y-25990D01*
X277581Y-25050D01*
X276450Y-23919D01*
X275510Y-22625D01*
X274784Y-21200D01*
X274289Y-19679D01*
X274154Y-18823D01*
X282677Y-18823D01*
X282677Y-27346D01*
X281821Y-27211D01*
G37*
%LPD*%
%LPC*%
G36*
X274154Y-15777D02*
X274154Y-15777D01*
X274289Y-14921D01*
X274784Y-13400D01*
X275510Y-11975D01*
X276450Y-10681D01*
X277581Y-9550D01*
X278875Y-8610D01*
X280300Y-7884D01*
X281821Y-7389D01*
X282677Y-7254D01*
X282677Y-15777D01*
X274154Y-15777D01*
G37*
%LPD*%
%LPC*%
G36*
X195729Y254109D02*
X195729Y254109D01*
X195729Y254111D01*
X195731Y254111D01*
X195731Y254109D01*
X195729Y254109D01*
G37*
%LPD*%
%LPC*%
G36*
X144929Y254109D02*
X144929Y254109D01*
X144929Y254111D01*
X144931Y254111D01*
X144931Y254109D01*
X144929Y254109D01*
G37*
%LPD*%
%LPC*%
G36*
X284199Y-17301D02*
X284199Y-17301D01*
X284199Y-17299D01*
X284201Y-17299D01*
X284201Y-17301D01*
X284199Y-17301D01*
G37*
%LPD*%
D10*
X170330Y279510D03*
D11*
X144930Y304910D03*
X144930Y254110D03*
X195730Y254110D03*
X195730Y304910D03*
D12*
X30200Y-17300D03*
X55600Y-17300D03*
X81000Y-17300D03*
X106400Y-17300D03*
X131800Y-17300D03*
X157200Y-17300D03*
X182600Y-17300D03*
X208000Y-17300D03*
X233400Y-17300D03*
X258800Y-17300D03*
X284200Y-17300D03*
X309600Y-17300D03*
D13*
X168402Y99822D03*
X156210Y86106D03*
X128016Y164592D03*
X148590Y174498D03*
X111252Y105918D03*
X168402Y174498D03*
X108204Y138684D03*
X146304Y85344D03*
X176022Y80010D03*
X198882Y109728D03*
X224028Y84582D03*
X202692Y44958D03*
X188976Y110490D03*
X300990Y67056D03*
X300990Y132588D03*
X301752Y79248D03*
X147828Y105156D03*
X138684Y105156D03*
X115824Y91440D03*
X101346Y144780D03*
X117348Y148590D03*
X118872Y164592D03*
X73152Y177546D03*
M02*
