G04 EAGLE Gerber RS-274X export*
G75*
%MOMM*%
%FSLAX34Y34*%
%LPD*%
%INBottom Copper*%
%IPPOS*%
%AMOC8*
5,1,8,0,0,1.08239X$1,22.5*%
G01*
%ADD10C,2.300000*%
%ADD11C,2.500000*%
%ADD12C,1.524000*%
%ADD13C,0.152400*%
%ADD14C,0.756400*%


D10*
X170330Y279510D03*
D11*
X144930Y304910D03*
X144930Y254110D03*
X195730Y254110D03*
X195730Y304910D03*
D12*
X30200Y-9680D02*
X30200Y-24920D01*
X55600Y-24920D02*
X55600Y-9680D01*
X81000Y-9680D02*
X81000Y-24920D01*
X106400Y-24920D02*
X106400Y-9680D01*
X131800Y-9680D02*
X131800Y-24920D01*
X157200Y-24920D02*
X157200Y-9680D01*
X182600Y-9680D02*
X182600Y-24920D01*
X208000Y-24920D02*
X208000Y-9680D01*
X233400Y-9680D02*
X233400Y-24920D01*
X258800Y-24920D02*
X258800Y-9680D01*
X284200Y-9680D02*
X284200Y-24920D01*
X309600Y-24920D02*
X309600Y-9680D01*
D13*
X168402Y98298D02*
X168402Y99822D01*
X168402Y98298D02*
X156210Y86106D01*
X128016Y140208D02*
X128016Y154686D01*
X128016Y164592D01*
X128016Y140208D02*
X168402Y99822D01*
X148590Y174498D02*
X137922Y174498D01*
X128016Y164592D01*
X111252Y151638D02*
X111252Y138684D01*
X111252Y105918D01*
X111252Y151638D02*
X114300Y154686D01*
X128016Y154686D01*
X148590Y174498D02*
X168402Y174498D01*
X111252Y138684D02*
X108204Y138684D01*
D14*
X168402Y99822D03*
X156210Y86106D03*
X128016Y164592D03*
X148590Y174498D03*
X111252Y105918D03*
X168402Y174498D03*
X108204Y138684D03*
D13*
X146304Y85344D02*
X147828Y85344D01*
X153162Y80010D01*
X176022Y80010D01*
D14*
X146304Y85344D03*
X176022Y80010D03*
D13*
X198882Y109728D02*
X224028Y84582D01*
D14*
X198882Y109728D03*
X224028Y84582D03*
D13*
X202692Y96774D02*
X202692Y67056D01*
X202692Y44958D01*
X202692Y96774D02*
X188976Y110490D01*
X202692Y67056D02*
X300990Y67056D01*
D14*
X202692Y44958D03*
X188976Y110490D03*
X300990Y67056D03*
D13*
X300990Y80010D02*
X300990Y132588D01*
X300990Y80010D02*
X301752Y79248D01*
D14*
X300990Y132588D03*
X301752Y79248D03*
D13*
X195072Y254508D02*
X145542Y254508D01*
X195072Y254508D02*
X195730Y254110D01*
X145542Y254508D02*
X144930Y254110D01*
X147828Y105156D02*
X147828Y100584D01*
X106680Y59436D01*
X106680Y-16764D01*
X106400Y-17300D01*
D14*
X147828Y105156D03*
D13*
X138684Y105156D02*
X138684Y96012D01*
X96012Y53340D01*
X96012Y-28956D01*
X102108Y-35052D01*
X113538Y-35052D01*
X131064Y-17526D01*
X131800Y-17300D01*
D14*
X138684Y105156D03*
D13*
X115824Y91440D02*
X115824Y82296D01*
X30480Y-3048D01*
X30480Y-16764D01*
X30200Y-17300D01*
D14*
X115824Y91440D03*
D13*
X101346Y106680D02*
X101346Y144780D01*
X101346Y106680D02*
X110490Y97536D01*
X118872Y97536D01*
X121920Y94488D01*
X121920Y83820D01*
X92964Y54864D01*
X92964Y-30480D01*
X100584Y-38100D01*
X136398Y-38100D01*
X156972Y-17526D01*
X157200Y-17300D01*
D14*
X101346Y144780D03*
D13*
X117348Y144780D02*
X117348Y148590D01*
X117348Y144780D02*
X153924Y108204D01*
X153924Y102108D01*
X140208Y88392D01*
X140208Y25146D01*
X182118Y-16764D01*
X182600Y-17300D01*
D14*
X117348Y148590D03*
D13*
X118872Y164592D02*
X134874Y180594D01*
X171450Y180594D01*
X182880Y169164D01*
X182880Y7620D01*
X207264Y-16764D01*
X208000Y-17300D01*
D14*
X118872Y164592D03*
D13*
X127254Y177546D02*
X73152Y177546D01*
X127254Y177546D02*
X133350Y183642D01*
X188214Y183642D01*
X298704Y73152D01*
X304038Y73152D01*
X307086Y70104D01*
X307086Y56388D01*
X233934Y-16764D01*
X233400Y-17300D01*
D14*
X73152Y177546D03*
M02*
