G04 EAGLE Gerber RS-274X export*
G75*
%MOMM*%
%FSLAX34Y34*%
%LPD*%
%INSoldermask Bottom*%
%IPPOS*%
%AMOC8*
5,1,8,0,0,1.08239X$1,22.5*%
G01*
%ADD10C,2.503200*%
%ADD11C,2.703200*%
%ADD12C,1.727200*%
%ADD13C,0.959600*%


D10*
X170330Y279510D03*
D11*
X144930Y304910D03*
X144930Y254110D03*
X195730Y254110D03*
X195730Y304910D03*
D12*
X30200Y-9680D02*
X30200Y-24920D01*
X55600Y-24920D02*
X55600Y-9680D01*
X81000Y-9680D02*
X81000Y-24920D01*
X106400Y-24920D02*
X106400Y-9680D01*
X131800Y-9680D02*
X131800Y-24920D01*
X157200Y-24920D02*
X157200Y-9680D01*
X182600Y-9680D02*
X182600Y-24920D01*
X208000Y-24920D02*
X208000Y-9680D01*
X233400Y-9680D02*
X233400Y-24920D01*
X258800Y-24920D02*
X258800Y-9680D01*
X284200Y-9680D02*
X284200Y-24920D01*
X309600Y-24920D02*
X309600Y-9680D01*
D13*
X168402Y99822D03*
X156210Y86106D03*
X128016Y164592D03*
X148590Y174498D03*
X111252Y105918D03*
X168402Y174498D03*
X108204Y138684D03*
X146304Y85344D03*
X176022Y80010D03*
X198882Y109728D03*
X224028Y84582D03*
X202692Y44958D03*
X188976Y110490D03*
X300990Y67056D03*
X300990Y132588D03*
X301752Y79248D03*
X147828Y105156D03*
X138684Y105156D03*
X115824Y91440D03*
X101346Y144780D03*
X117348Y148590D03*
X118872Y164592D03*
X73152Y177546D03*
M02*
