M48
;GenerationSoftware,Autodesk,EAGLE,9.2.2*%
;CreationDate,2020-01-16T13:58:40Z*%
FMAT,2
ICI,OFF
METRIC,TZ,000.000
T4C0.350
T3C1.016
T2C1.500
T1C1.600
%
G90
M71
T1
X14493Y30491
X14493Y25411
X19573Y25411
X19573Y30491
T2
X17033Y27951
T3
X30960Y-1730
X3020Y-1730
X5560Y-1730
X8100Y-1730
X10640Y-1730
X13180Y-1730
X15720Y-1730
X18260Y-1730
X20800Y-1730
X23340Y-1730
X25880Y-1730
X28420Y-1730
T4
X13868Y10516
X11582Y9144
X10135Y14478
X16840Y9982
X11887Y16459
X7315Y17755
X15621Y8611
X12802Y16459
X14859Y17450
X11125Y10592
X16840Y17450
X10820Y13868
X14630Y8534
X17602Y8001
X19888Y10973
X22403Y8458
X20269Y4496
X18898Y11049
X30099Y6706
X30099Y13259
X30175Y7925
X14783Y10516
X11735Y14859
M30